<?xml version="1.0" standalone="no"?>
<!DOCTYPE svg PUBLIC "-//W3C//DTD SVG 20010904//EN"
 "http://www.w3.org/TR/2001/REC-SVG-20010904/DTD/svg10.dtd">
<svg version="1.0" xmlns="http://www.w3.org/2000/svg"
 width="512.000000pt" height="512.000000pt" viewBox="0 0 512.000000 512.000000"
 preserveAspectRatio="xMidYMid meet">
<metadata>
Created by potrace 1.11, written by Peter Selinger 2001-2013
</metadata>
<g transform="translate(0.000000,512.000000) scale(0.100000,-0.100000)"
fill="#000000" stroke="none">
<path d="M4755 5034 c-109 -28 -224 -91 -306 -170 l-45 -45 -37 16 c-35 14
-82 13 -132 -3 -11 -3 -22 -7 -25 -7 -29 -7 -121 -36 -245 -76 -198 -65 -296
-69 -438 -15 -34 13 -117 45 -185 70 -122 46 -306 98 -392 111 -24 4 -47 8
-50 10 -3 1 -32 6 -65 10 -33 3 -89 10 -125 15 -69 9 -481 7 -496 -2 -5 -3
-34 -9 -64 -12 -118 -14 -292 -54 -440 -101 -113 -37 -141 -48 -268 -106 -35
-16 -65 -29 -68 -29 -10 0 -194 -107 -264 -153 -408 -272 -742 -678 -923
-1122 -85 -206 -153 -470 -174 -670 -10 -98 -11 -435 -1 -530 66 -644 392
-1249 893 -1659 332 -272 679 -437 1100 -521 164 -33 271 -43 469 -43 551 -3
1061 168 1510 505 120 91 355 324 448 443 275 357 433 730 505 1190 24 156 24
519 0 675 -36 236 -89 431 -168 615 -72 170 -82 208 -76 300 4 62 16 119 46
210 54 164 101 344 101 387 0 19 -5 44 -11 55 -9 17 -5 26 28 62 156 164 218
353 158 480 -19 40 -64 82 -104 98 -30 12 -127 19 -156 12z m103 -170 c21 -14
23 -22 17 -63 -7 -56 -21 -92 -57 -150 -29 -47 -94 -121 -106 -121 -4 0 -47
40 -96 89 -81 82 -88 91 -75 108 55 70 199 151 269 153 14 0 36 -7 48 -16z"/>
</g>
</svg>
